%TF.GenerationSoftware,KiCad,Pcbnew,9.0.5*%
%TF.CreationDate,2025-10-24T17:11:16+08:00*%
%TF.ProjectId,K1_Lightwave,4b315f4c-6967-4687-9477-6176652e6b69,rev?*%
%TF.SameCoordinates,Original*%
%TF.FileFunction,Copper,L1,Top*%
%TF.FilePolarity,Positive*%
%FSLAX46Y46*%
G04 Gerber Fmt 4.6, Leading zero omitted, Abs format (unit mm)*
G04 Created by KiCad (PCBNEW 9.0.5) date 2025-10-24 17:11:16*
%MOMM*%
%LPD*%
G01*
G04 APERTURE LIST*
%TA.AperFunction,ComponentPad*%
%ADD10C,1.000000*%
%TD*%
G04 APERTURE END LIST*
D10*
%TO.P,RLED3,1*%
%TO.N,N$9*%
X38644442Y-50518750D03*
%TD*%
%TO.P,D_ESD_CC1,1*%
%TO.N,N$1*%
X27966665Y-36493750D03*
%TD*%
%TO.P,R_USB_DP_SER,1*%
%TO.N,USB_D+_BOARD*%
X17288888Y-64543750D03*
%TD*%
%TO.P,R3,1*%
%TO.N,+3V3*%
X59999996Y-43506250D03*
%TD*%
%TO.P,R_BYPASS_DATA,1*%
%TO.N,MIC_PDM_DATA*%
X70677773Y-50518750D03*
%TD*%
%TO.P,R_SPI_MOSI_SER,1*%
%TO.N,SPI_MOSI_COMA_SRC*%
X81355550Y-57531250D03*
%TD*%
%TO.P,D3,1*%
%TO.N,N$8*%
X102711104Y-29481250D03*
%TD*%
%TO.P,D_IDEAL,1*%
%TO.N,LED_5V_RAW*%
X70677773Y-36493750D03*
%TD*%
%TO.P,R_LVT_CLK_OUT,1*%
%TO.N,N/C*%
X102711104Y-50518750D03*
%TD*%
%TO.P,R_LVT_DATA_IN,1*%
%TO.N,MIC_PDM_DATA*%
X17288888Y-57531250D03*
%TD*%
%TO.P,J9,1*%
%TO.N,+3V3*%
X59999996Y-11950000D03*
%TD*%
%TO.P,U4,1*%
%TO.N,A0*%
X38644442Y-15456250D03*
%TD*%
%TO.P,J4,1*%
%TO.N,GND*%
X102711104Y-11950000D03*
%TD*%
%TO.P,C3,1*%
%TO.N,CHIP_PU*%
X17288888Y-29481250D03*
%TD*%
%TO.P,R1,1*%
%TO.N,N$1*%
X38644442Y-43506250D03*
%TD*%
%TO.P,JLED2,1*%
%TO.N,N$6*%
X81355550Y-11950000D03*
%TD*%
%TO.P,F4,1*%
%TO.N,LED_5V*%
X17288888Y-43506250D03*
%TD*%
%TO.P,D4,1*%
%TO.N,N$10*%
X17288888Y-36493750D03*
%TD*%
%TO.P,J1,1*%
%TO.N,N/C*%
X59999996Y-11950000D03*
%TD*%
%TO.P,U3,1*%
%TO.N,N/C*%
X27966665Y-15456250D03*
%TD*%
%TO.P,R_SPI_MISO_SER,1*%
%TO.N,SPI_MISO_COMB_SRC*%
X70677773Y-57531250D03*
%TD*%
%TO.P,D_ESD_CC2,1*%
%TO.N,N$2*%
X38644442Y-36493750D03*
%TD*%
%TO.P,D2,1*%
%TO.N,N$6*%
X92033327Y-29481250D03*
%TD*%
%TO.P,D_ESD_DP,1*%
%TO.N,USB_D+_CONN*%
X59999996Y-36493750D03*
%TD*%
%TO.P,C4,1*%
%TO.N,XIN_40M*%
X27966665Y-29481250D03*
%TD*%
%TO.P,R7,1*%
%TO.N,LED_5V*%
X102711104Y-43506250D03*
%TD*%
%TO.P,J3,1*%
%TO.N,GND*%
X92033327Y-11950000D03*
%TD*%
%TO.P,R_FET_GATE,1*%
%TO.N,+3V3*%
X81355550Y-50518750D03*
%TD*%
%TO.P,JLED3,1*%
%TO.N,N$8*%
X92033327Y-11950000D03*
%TD*%
%TO.P,R5,1*%
%TO.N,+3V3*%
X81355550Y-43506250D03*
%TD*%
%TO.P,J7,1*%
%TO.N,+3V3*%
X38644442Y-11950000D03*
%TD*%
%TO.P,C_INA,1*%
%TO.N,+3V3*%
X70677773Y-29481250D03*
%TD*%
%TO.P,RLED1,1*%
%TO.N,N$5*%
X17288888Y-50518750D03*
%TD*%
%TO.P,J12,1*%
%TO.N,+3V3*%
X17288888Y-11950000D03*
%TD*%
%TO.P,R_PDM_CLK_SER,1*%
%TO.N,COMA_PDM_CLK*%
X38644442Y-57531250D03*
%TD*%
%TO.P,J8,1*%
%TO.N,+3V3*%
X49322219Y-11950000D03*
%TD*%
%TO.P,R_SPI_SCK_SER,1*%
%TO.N,SPI_SCK_COMA_SRC*%
X92033327Y-57531250D03*
%TD*%
%TO.P,C_BIN1,1*%
%TO.N,VBUS_USB_5V*%
X49322219Y-29481250D03*
%TD*%
%TO.P,R4,1*%
%TO.N,+3V3*%
X70677773Y-43506250D03*
%TD*%
%TO.P,R_LVT_CLK_IN,1*%
%TO.N,COMA_PDM_CLK*%
X92033327Y-50518750D03*
%TD*%
%TO.P,J2,1*%
%TO.N,LED_5V_RAW*%
X81355550Y-11950000D03*
%TD*%
%TO.P,C5,1*%
%TO.N,XOUT_40M*%
X38644442Y-29481250D03*
%TD*%
%TO.P,R_SPI_CS_PU,1*%
%TO.N,+3V3*%
X59999996Y-57531250D03*
%TD*%
%TO.P,RLED2,1*%
%TO.N,N$7*%
X27966665Y-50518750D03*
%TD*%
%TO.P,F3,1*%
%TO.N,LED_5V*%
X102711104Y-36493750D03*
%TD*%
%TO.P,F1,1*%
%TO.N,LED_5V*%
X81355550Y-36493750D03*
%TD*%
%TO.P,R_READY_PD,1*%
%TO.N,READY_B2A*%
X49322219Y-57531250D03*
%TD*%
%TO.P,D_ESD_DM,1*%
%TO.N,USB_D-_CONN*%
X49322219Y-36493750D03*
%TD*%
%TO.P,R_USB_DM_SER,1*%
%TO.N,USB_D-_BOARD*%
X102711104Y-57531250D03*
%TD*%
%TO.P,U8,1*%
%TO.N,N/C*%
X49322219Y-15456250D03*
%TD*%
%TO.P,R6,1*%
%TO.N,+3V3*%
X92033327Y-43506250D03*
%TD*%
%TO.P,D1,1*%
%TO.N,N$4*%
X81355550Y-29481250D03*
%TD*%
%TO.P,F2,1*%
%TO.N,LED_5V*%
X92033327Y-36493750D03*
%TD*%
%TO.P,R_LVT_DATA_OUT,1*%
%TO.N,N/C*%
X27966665Y-57531250D03*
%TD*%
%TO.P,F_USB,1*%
%TO.N,N$3*%
X27966665Y-43506250D03*
%TD*%
%TO.P,JLED1,1*%
%TO.N,N$4*%
X70677773Y-11950000D03*
%TD*%
%TO.P,R2,1*%
%TO.N,N$2*%
X49322219Y-43506250D03*
%TD*%
%TO.P,J5,1*%
%TO.N,GND*%
X17288888Y-11950000D03*
%TD*%
%TO.P,C_BOUT1,1*%
%TO.N,+3V3*%
X59999996Y-29481250D03*
%TD*%
%TO.P,J11,1*%
%TO.N,+3V3*%
X70677773Y-11950000D03*
%TD*%
%TO.P,JLED4,1*%
%TO.N,N$10*%
X102711104Y-11950000D03*
%TD*%
%TO.P,RLED4,1*%
%TO.N,N$11*%
X49322219Y-50518750D03*
%TD*%
%TO.P,SW1,1*%
%TO.N,GPIO0_BOOT*%
X27966665Y-64543750D03*
%TD*%
%TO.P,J6,1*%
%TO.N,GND*%
X27966665Y-11950000D03*
%TD*%
%TO.P,R_BYPASS_CLK,1*%
%TO.N,COMA_PDM_CLK*%
X59999996Y-50518750D03*
%TD*%
M02*
