M48
; DRILL file {KiCad 9.0.5} date 2025-10-24T17:11:16+0800
; FORMAT={-:-/ absolute / metric / decimal}
; #@! TF.CreationDate,2025-10-24T17:11:16+08:00
; #@! TF.GenerationSoftware,Kicad,Pcbnew,9.0.5
; #@! TF.FileFunction,MixedPlating,1,2
FMAT,2
METRIC
; #@! TA.AperFunction,Plated,PTH,ComponentDrill
T1C0.762
%
G90
G05
T1
X17.289Y-11.95
X17.289Y-11.95
X17.289Y-29.481
X17.289Y-36.494
X17.289Y-43.506
X17.289Y-50.519
X17.289Y-57.531
X17.289Y-64.544
X27.967Y-11.95
X27.967Y-15.456
X27.967Y-29.481
X27.967Y-36.494
X27.967Y-43.506
X27.967Y-50.519
X27.967Y-57.531
X27.967Y-64.544
X38.644Y-11.95
X38.644Y-15.456
X38.644Y-29.481
X38.644Y-36.494
X38.644Y-43.506
X38.644Y-50.519
X38.644Y-57.531
X49.322Y-11.95
X49.322Y-15.456
X49.322Y-29.481
X49.322Y-36.494
X49.322Y-43.506
X49.322Y-50.519
X49.322Y-57.531
X60.0Y-11.95
X60.0Y-11.95
X60.0Y-29.481
X60.0Y-36.494
X60.0Y-43.506
X60.0Y-50.519
X60.0Y-57.531
X70.678Y-11.95
X70.678Y-11.95
X70.678Y-29.481
X70.678Y-36.494
X70.678Y-43.506
X70.678Y-50.519
X70.678Y-57.531
X81.356Y-11.95
X81.356Y-11.95
X81.356Y-29.481
X81.356Y-36.494
X81.356Y-43.506
X81.356Y-50.519
X81.356Y-57.531
X92.033Y-11.95
X92.033Y-11.95
X92.033Y-29.481
X92.033Y-36.494
X92.033Y-43.506
X92.033Y-50.519
X92.033Y-57.531
X102.711Y-11.95
X102.711Y-11.95
X102.711Y-29.481
X102.711Y-36.494
X102.711Y-43.506
X102.711Y-50.519
X102.711Y-57.531
M30
